<svg width="194" height="146" viewBox="0 0 194 146" fill="none" xmlns="http://www.w3.org/2000/svg">
<path d="M11.5202 107V44.6953C13.1152 44.3698 16.0937 44.0117 20.4557 43.6211C24.8502 43.2305 28.789 43.0352 32.2721 43.0352C35.7552 43.0352 38.6523 43.2467 40.9635 43.6699C43.3073 44.0605 45.2767 44.7116 46.8717 45.623C48.4668 46.5345 49.7689 47.5762 50.778 48.748C51.8196 49.9199 52.6172 51.401 53.1705 53.1914C54.1797 56.2513 54.6842 60.304 54.6842 65.3496V107H11.5202ZM37.8385 94.7441V65.3008C37.8385 61.5247 37.3991 58.9368 36.5202 57.5371C35.6413 56.1048 34.0299 55.3887 31.6862 55.3887C31.1979 55.3887 30.0748 55.5189 28.317 55.7793V94.7441H37.8385ZM60.6512 43.7188C66.3153 43.1328 71.0516 42.8398 74.8602 42.8398C78.7014 42.8398 81.924 43.1654 84.5282 43.8164C87.1324 44.4674 89.232 45.3626 90.827 46.502C92.4546 47.6413 93.7079 49.1875 94.5868 51.1406C95.4983 53.0612 96.1005 55.0957 96.3934 57.2441C96.719 59.3926 96.8817 62.0293 96.8817 65.1543V107H80.0848V65.1055C80.0848 61.6549 79.4826 59.1484 78.2782 57.5859C77.0738 55.9909 75.0393 55.1934 72.1747 55.1934C69.1148 55.1934 65.8433 55.3398 62.3602 55.6328L60.6512 55.7793V43.7188ZM103.288 44.5488C107.618 43.5397 111.915 43.0352 116.179 43.0352C120.476 43.0352 123.91 43.4746 126.482 44.3535C129.086 45.1999 131.169 46.3392 132.732 47.7715C134.294 49.2038 135.547 51.0267 136.491 53.2402C137.435 55.4538 138.07 57.7487 138.396 60.125C138.754 62.5013 138.933 65.2194 138.933 68.2793V81.2188C138.933 86.9154 138.021 91.8958 136.198 96.1602C135.157 98.5039 133.838 100.538 132.243 102.264C130.681 103.956 128.63 105.324 126.091 106.365C123.552 107.407 120.655 107.928 117.4 107.928C111.866 107.928 107.162 107.358 103.288 106.219V93.3281C107.097 94.4674 110.954 95.0371 114.86 95.0371C118.278 95.0371 120.378 93.1979 121.159 89.5195C121.615 87.5339 121.843 84.7669 121.843 81.2188V68.2793C121.843 64.2103 121.241 61.1341 120.036 59.0508C118.832 56.9674 116.846 55.9258 114.079 55.9258C110.368 55.9258 107.194 56.2188 104.558 56.8047L103.288 57.0488V44.5488ZM155.837 43.7676C159.971 43.2793 163.78 43.0352 167.263 43.0352C170.746 43.0352 173.643 43.2467 175.954 43.6699C178.298 44.0605 180.268 44.7116 181.863 45.623C183.458 46.5345 184.76 47.5762 185.769 48.748C186.811 49.9199 187.608 51.401 188.161 53.1914C189.171 56.2513 189.675 60.304 189.675 65.3496V107H172.829V65.3008C172.829 61.5573 172.195 58.9694 170.925 57.5371C169.656 56.1048 167.426 55.3887 164.236 55.3887C162.022 55.3887 159.434 55.5677 156.472 55.9258C153.542 56.2513 151.15 56.5931 149.294 56.9512L146.511 57.4883V45.2812C148.627 44.7279 151.736 44.2233 155.837 43.7676ZM163.308 107H146.511V66.082H163.308V107Z" fill="white"/>
<path d="M124.751 134.465C127.628 134.465 129.959 132.014 129.959 128.989C129.959 125.965 127.628 123.514 124.751 123.514C121.875 123.514 119.543 125.965 119.543 128.989C119.543 132.014 121.875 134.465 124.751 134.465Z" fill="white"/>
<path d="M112.458 134.465C115.335 134.465 117.666 132.014 117.666 128.989C117.666 125.965 115.335 123.514 112.458 123.514C109.582 123.514 107.25 125.965 107.25 128.989C107.25 132.014 109.582 134.465 112.458 134.465Z" fill="white"/>
<path d="M130.79 123.952C133.667 123.952 135.998 121.5 135.998 118.476C135.998 115.452 133.667 113 130.79 113C127.914 113 125.582 115.452 125.582 118.476C125.582 121.5 127.914 123.952 130.79 123.952Z" fill="white"/>
<path d="M118.708 145.416C121.585 145.416 123.916 142.965 123.916 139.941C123.916 136.916 121.585 134.465 118.708 134.465C115.832 134.465 113.5 136.916 113.5 139.941C113.5 142.965 115.832 145.416 118.708 145.416Z" fill="white"/>
<path d="M118.501 123.952C121.378 123.952 123.709 121.5 123.709 118.476C123.709 115.452 121.378 113 118.501 113C115.625 113 113.293 115.452 113.293 118.476C113.293 121.5 115.625 123.952 118.501 123.952Z" fill="white"/>
<path d="M106.208 123.952C109.085 123.952 111.416 121.5 111.416 118.476C111.416 115.452 109.085 113 106.208 113C103.332 113 101 115.452 101 118.476C101 121.5 103.332 123.952 106.208 123.952Z" fill="white"/>
<path fill-rule="evenodd" clip-rule="evenodd" d="M54.5047 43.0078C54.5047 43.0078 54.5047 43.0078 54.8193 44.8966C55.0402 46.1813 54.6372 47.2674 54.6689 48.4974C54.7014 49.7819 56.238 51.188 56.4671 52.5114C57.1945 56.7115 57.6928 58.9383 60 62C56.5346 61.5481 53.7771 59.832 52.2429 57.5174C50.7621 55.2815 50.5321 53.8899 48.6349 52.0588C47.6099 51.0699 46.6742 50.4329 45.1204 50.0237C41.6729 49.1168 38.3474 47.3625 35.6308 45.6142C35.1523 45.3062 34.5527 44.8966 34.5527 44.8966C33.7135 44.8966 13.3776 44.8765 13.2723 44.8966C12.8277 44.9808 11.7282 46.5457 11.2039 47.0273C10.5366 47.6412 9.63411 47.9557 9.15371 48.8365C8.80131 49.4825 8.69343 50.2137 8.39197 50.8717C7.60047 52.6012 6.32667 54.5075 4.87753 55.7335C4.03974 56.443 3.49997 56.7455 2.27985 57.2283C1.75299 57.437 0.261177 57.8647 0.0154676 57.6561C-0.0919014 57.3836 0.384724 57.0692 0.672934 56.7115C1.79171 55.3235 2.09884 53.5385 2.76869 51.6633C3.53645 49.5142 4.70925 47.4429 4.29165 44.8966C3.82311 43.8767 3.37278 43.0417 3.37278 43.0417C0.658104 39.0674 -0.280656 32.4511 2.12431 27.5227C2.55946 26.6311 3.37006 25.9179 3.82311 25.0354C4.58863 23.5437 4.35978 21.8862 4.99471 20.5688C6.10969 18.2558 7.93462 16.3082 11.0282 16C11.5554 16 12.0824 16 12.6098 16C16.2604 16.4298 18.3907 17.6952 18.819 19.4948C19.4561 19.2173 20.3719 19.6038 21.1033 19.6079C20.7064 20.28 20.2705 20.9149 19.8149 21.5301C22.3302 29.4262 20.7098 39.365 15.5783 43.0078C21.4165 43.0078 26.233 43.0078 32.0713 43.0078C29.9363 41.1271 28.2059 39.2403 26.9611 36.1161C25.6796 32.8994 25.8726 28.0543 27.4883 25.1485C27.0835 24.4271 26.3049 23.7655 25.965 23.1695C26.5804 23.039 28.6596 22.774 28.6596 22.774C28.6596 22.774 29.7039 21.005 30.4756 20.3426C32.0667 18.9767 34.3128 18.7426 36.2162 19.2687C37.9587 19.7499 39.5572 20.9115 40.4927 22.265C41.267 23.3859 41.4751 24.8426 42.0159 26.1092C42.5345 27.3251 43.1773 28.5648 44.1243 29.3885C44.6793 29.8706 45.3925 30.2336 45.999 30.6323C50.3616 33.4989 53.5529 36.8775 54.5047 43.0078ZM14.5676 21.8666C16.0004 21.8824 15.9818 19.552 14.4089 19.7888C13.0938 19.9867 13.3065 21.8523 14.5676 21.8666ZM32.8761 24.0849C34.5103 24.6274 34.7356 22.0062 33 22.3975C31.9051 22.6446 32.2277 23.8697 32.8761 24.0849Z" fill="white"/>
<path d="M109.208 80.9515C112.085 80.9515 114.416 78.5 114.416 75.4758C114.416 72.4516 112.085 70 109.208 70C106.332 70 104 72.4516 104 75.4758C104 78.5 106.332 80.9515 109.208 80.9515Z" fill="white"/>
</svg>
